<?xml version="1.0" encoding="utf-8"?>
<!-- Generator: Adobe Illustrator 19.0.0, SVG Export Plug-In . SVG Version: 6.00 Build 0)  -->
<svg version="1.1" id="Layer_1" xmlns="http://www.w3.org/2000/svg" xmlns:xlink="http://www.w3.org/1999/xlink" x="0px" y="0px"
	 viewBox="0 0 612 792" style="enable-background:new 0 0 612 792;" xml:space="preserve">
<style type="text/css">
	.st0{fill:#FFFFFF;}
	.st1{fill:none;stroke:#010101;stroke-width:0.5;}
	.st2{fill:#010101;}
	.st3{fill:none;stroke:#010101;}
</style>
<rect id="XMLID_2_" x="129" y="197.5" class="st0" width="386.5" height="222.5"/>
<line id="XMLID_219_" class="st1" x1="340.9" y1="276.9" x2="211.1" y2="276.9"/>
<line id="XMLID_218_" class="st1" x1="340.9" y1="358" x2="212.7" y2="358"/>
<path id="XMLID_201_" class="st2" d="M155.8,262.9h4.7v0.7h-1.9v5.1h-0.8v-5.1h-1.9V262.9z M163.7,267.4c0,0.2-0.2,0.8-0.7,1.1
	c-0.2,0.1-0.5,0.3-1.1,0.3c-1.2,0-1.9-0.9-1.9-2.1c0-1.3,0.6-2.3,2-2.3c1.2,0,1.8,1,1.8,2.4h-3.1c0,0.9,0.4,1.4,1.2,1.4
	c0.7,0,1.1-0.5,1.1-0.8H163.7z M163,266.3c0-0.6-0.3-1.2-1.2-1.2c-0.6,0-1.2,0.6-1.2,1.2H163z M164.6,264.5h0.7v0.6h0
	c0.2-0.2,0.5-0.7,1.3-0.7s1,0.5,1.1,0.7c0.4-0.4,0.6-0.7,1.3-0.7c0.4,0,1.3,0.2,1.3,1.4v2.9h-0.7V266c0-0.6-0.2-1-0.8-1
	c-0.6,0-1,0.6-1,1.1v2.6H167v-2.9c0-0.4-0.1-0.8-0.7-0.8c-0.4,0-1.1,0.3-1.1,1.4v2.3h-0.7V264.5z M171.2,264.5h0.7v0.6h0
	c0.2-0.2,0.5-0.7,1.2-0.7c1.1,0,1.7,0.9,1.7,2.1c0,1-0.4,2.3-1.8,2.3c-0.6,0-0.9-0.3-1.1-0.6h0v2.1h-0.7V264.5z M173,268.2
	c0.8,0,1.1-0.7,1.1-1.6c0-0.5-0.1-1.6-1.1-1.6c-1,0-1.1,1.1-1.1,1.8C171.8,267.9,172.5,268.2,173,268.2z M179.2,267.4
	c0,0.2-0.2,0.8-0.7,1.1c-0.2,0.1-0.5,0.3-1.1,0.3c-1.2,0-1.9-0.9-1.9-2.1c0-1.3,0.6-2.3,2-2.3c1.2,0,1.8,1,1.8,2.4h-3.1
	c0,0.9,0.4,1.4,1.2,1.4c0.7,0,1.1-0.5,1.1-0.8H179.2z M178.5,266.3c0-0.6-0.3-1.2-1.2-1.2c-0.6,0-1.2,0.6-1.2,1.2H178.5z
	 M180.9,268.7h-0.7v-4.2h0.7v0.7h0c0.3-0.5,0.6-0.8,1.2-0.8c0.1,0,0.1,0,0.2,0v0.7H182c-0.7,0-1.1,0.5-1.1,1.1V268.7z M182.7,265.8
	c0-1,0.7-1.4,1.7-1.4c0.3,0,1.6,0.1,1.6,1.2v2.4c0,0.2,0.1,0.2,0.2,0.2c0.1,0,0.2,0,0.2,0v0.5c-0.1,0-0.2,0.1-0.4,0.1
	c-0.6,0-0.7-0.3-0.7-0.6c-0.3,0.3-0.7,0.7-1.5,0.7c-0.8,0-1.3-0.5-1.3-1.2c0-0.4,0.1-1.2,1.3-1.3l1.2-0.1c0.2,0,0.4-0.1,0.4-0.5
	c0-0.4-0.3-0.7-1-0.7c-0.8,0-0.9,0.5-1,0.8H182.7z M185.3,266.6c-0.1,0.1-0.3,0.2-1.2,0.3c-0.3,0-0.9,0.2-0.9,0.7
	c0,0.5,0.2,0.7,0.8,0.7c0.7,0,1.3-0.4,1.3-1V266.6z M188,265.1v2.7c0,0.3,0.3,0.3,0.4,0.3h0.2v0.6c-0.3,0-0.5,0.1-0.5,0.1
	c-0.7,0-0.8-0.4-0.8-0.9v-2.8h-0.6v-0.6h0.6v-1.2h0.7v1.2h0.7v0.6H188z M192.1,268.7v-0.6l0,0c-0.3,0.5-0.7,0.7-1.3,0.7
	c-0.6,0-1.4-0.3-1.4-1.3v-3h0.7v2.8c0,0.7,0.4,0.9,0.8,0.9c0.9,0,1.2-0.8,1.2-1.4v-2.3h0.7v4.2H192.1z M194.6,268.7h-0.7v-4.2h0.7
	v0.7h0c0.3-0.5,0.6-0.8,1.2-0.8c0.1,0,0.1,0,0.2,0v0.7h-0.3c-0.7,0-1.1,0.5-1.1,1.1V268.7z M200,267.4c0,0.2-0.2,0.8-0.7,1.1
	c-0.2,0.1-0.5,0.3-1.1,0.3c-1.2,0-1.9-0.9-1.9-2.1c0-1.3,0.6-2.3,2-2.3c1.2,0,1.8,1,1.8,2.4H197c0,0.9,0.4,1.4,1.2,1.4
	c0.7,0,1.1-0.5,1.1-0.8H200z M199.4,266.3c0-0.6-0.3-1.2-1.2-1.2c-0.6,0-1.2,0.6-1.2,1.2H199.4z"/>
<path id="XMLID_192_" class="st2" d="M170.6,275.3c0-0.3-0.1-0.7-1-0.7c-0.2,0-0.8,0.1-0.8,0.6c0,0.3,0.2,0.4,0.8,0.6l0.7,0.2
	c0.9,0.2,1.2,0.5,1.2,1.1c0,0.9-0.7,1.4-1.7,1.4c-1.7,0-1.8-1-1.8-1.5h0.7c0,0.3,0.1,0.9,1.1,0.9c0.5,0,1-0.2,1-0.7
	c0-0.3-0.2-0.4-0.8-0.6l-0.8-0.2c-0.6-0.1-1-0.4-1-1c0-0.9,0.8-1.3,1.6-1.3c1.5,0,1.6,1.1,1.6,1.3H170.6z M175.7,277
	c0,0.2-0.2,0.8-0.7,1.1c-0.2,0.1-0.5,0.3-1.1,0.3c-1.2,0-1.9-0.9-1.9-2.1c0-1.3,0.6-2.3,2-2.3c1.2,0,1.8,1,1.8,2.4h-3.1
	c0,0.9,0.4,1.4,1.2,1.4c0.7,0,1.1-0.5,1.1-0.8H175.7z M175.1,275.9c0-0.6-0.3-1.2-1.2-1.2c-0.6,0-1.2,0.6-1.2,1.2H175.1z M180,278.3
	h-0.7v-2.6c0-0.7-0.2-1.1-0.9-1.1c-0.4,0-1.1,0.3-1.1,1.4v2.3h-0.7v-4.2h0.7v0.6h0c0.2-0.2,0.5-0.7,1.3-0.7c0.6,0,1.5,0.3,1.5,1.5
	V278.3z M183.5,275.3c0-0.3-0.1-0.7-1-0.7c-0.2,0-0.8,0.1-0.8,0.6c0,0.3,0.2,0.4,0.8,0.6l0.7,0.2c0.9,0.2,1.2,0.5,1.2,1.1
	c0,0.9-0.7,1.4-1.7,1.4c-1.7,0-1.8-1-1.8-1.5h0.7c0,0.3,0.1,0.9,1.1,0.9c0.5,0,1-0.2,1-0.7c0-0.3-0.2-0.4-0.8-0.6l-0.8-0.2
	c-0.6-0.1-1-0.4-1-1c0-0.9,0.8-1.3,1.6-1.3c1.5,0,1.6,1.1,1.6,1.3H183.5z M186.8,274c1.3,0,1.9,1.1,1.9,2.2s-0.6,2.2-1.9,2.2
	s-1.9-1.1-1.9-2.2S185.4,274,186.8,274z M186.8,277.8c1,0,1.2-1,1.2-1.6s-0.2-1.6-1.2-1.6s-1.2,1-1.2,1.6S185.8,277.8,186.8,277.8z
	 M190.3,278.3h-0.7v-4.2h0.7v0.7h0c0.3-0.5,0.6-0.8,1.2-0.8c0.1,0,0.1,0,0.2,0v0.7h-0.3c-0.7,0-1.1,0.5-1.1,1.1V278.3z"/>
<polygon id="XMLID_191_" class="st2" points="293,264.1 293.9,264.1 291.8,269.8 290.9,269.8 288.8,264.1 289.7,264.1 291.3,269 
	291.4,269 "/>
<path id="XMLID_185_" class="st2" d="M298.4,267.8c0-0.9-0.8-1.2-1.4-1.2c-0.5,0-1.3,0.1-1.3,1c0,0.5,0.3,0.6,0.7,0.7l1.6,0.4
	c0.7,0.2,1.3,0.6,1.3,1.5c0,1.4-1.3,1.7-2.2,1.7c-1.1,0-1.5-0.3-1.7-0.6c-0.5-0.4-0.6-0.9-0.6-1.5h0.7c0,1,0.8,1.3,1.6,1.3
	c0.6,0,1.5-0.1,1.5-1c0-0.6-0.3-0.8-1.2-1l-1.2-0.3c-0.4-0.1-1.2-0.4-1.2-1.4c0-0.9,0.6-1.8,2-1.8c2,0,2.2,1.2,2.2,1.8H298.4z
	 M304.6,271.9h-4.2v-5.7h4.2v0.7h-3.4v1.8h3.1v0.7h-3.1v1.9h3.5V271.9z M309.4,266.2h0.8v5.7h-0.9l-2.9-4.6h0v4.6h-0.8v-5.7h0.9
	l2.9,4.6h0V266.2z M314.8,267.8c0-0.9-0.8-1.2-1.4-1.2c-0.5,0-1.3,0.1-1.3,1c0,0.5,0.3,0.6,0.7,0.7l1.6,0.4c0.7,0.2,1.3,0.6,1.3,1.5
	c0,1.4-1.3,1.7-2.2,1.7c-1.1,0-1.5-0.3-1.7-0.6c-0.5-0.4-0.6-0.9-0.6-1.5h0.7c0,1,0.8,1.3,1.6,1.3c0.6,0,1.5-0.1,1.5-1
	c0-0.6-0.3-0.8-1.2-1l-1.2-0.3c-0.4-0.1-1.2-0.4-1.2-1.4c0-0.9,0.6-1.8,2-1.8c2,0,2.2,1.2,2.2,1.8H314.8z M321,271.9h-4.2v-5.7h4.2
	v0.7h-3.4v1.8h3.1v0.7h-3.1v1.9h3.5V271.9z"/>
<polyline id="XMLID_184_" class="st2" points="241.2,242.9 243.8,242.9 243.6,243.7 241.7,250.1 241.2,252.1 240.6,250.1 
	238.8,243.7 238.6,242.9 239.4,242.9 239.9,243.3 241.7,249.7 240.6,250.1 240.6,249.7 242.5,243.3 243.6,243.7 243,244.1 
	241.2,244.1 "/>
<rect id="XMLID_183_" x="239.4" y="242.9" class="st2" width="1.8" height="1.2"/>
<polyline id="XMLID_182_" class="st2" points="241.2,243.5 243,243.5 241.2,249.9 239.4,243.5 "/>
<rect id="XMLID_181_" x="240.9" y="224.1" class="st2" width="0.6" height="19.1"/>
<path id="XMLID_158_" class="st2" d="M201.6,211.4h4.7v0.7h-1.9v5.1h-0.8v-5.1h-1.9V211.4z M210.5,213.1c0-0.9-0.8-1.2-1.4-1.2
	c-0.5,0-1.3,0.1-1.3,1c0,0.5,0.3,0.6,0.7,0.7l1.6,0.4c0.7,0.2,1.3,0.6,1.3,1.5c0,1.4-1.3,1.7-2.2,1.7c-1.1,0-1.5-0.3-1.7-0.6
	c-0.5-0.4-0.6-0.9-0.6-1.5h0.7c0,1,0.8,1.3,1.6,1.3c0.6,0,1.5-0.1,1.5-1c0-0.6-0.3-0.8-1.2-1l-1.2-0.3c-0.4-0.1-1.2-0.4-1.2-1.4
	c0-0.9,0.6-1.8,2-1.8c2,0,2.2,1.2,2.2,1.8H210.5z M216,211.4h0.9l-2.1,5.7H214l-2.1-5.7h0.9l1.6,4.9h0L216,211.4z M218.5,217.1h-0.8
	v-5.7h2.7c0.9,0,1.9,0.3,1.9,1.5c0,0.8-0.4,1.2-0.8,1.4c0.3,0.1,0.7,0.3,0.7,1.1l0,1c0,0.3,0,0.4,0.3,0.6v0.1h-1
	c-0.1-0.4-0.1-1.2-0.1-1.4c0-0.5-0.1-1-1-1h-1.9V217.1z M218.5,214h1.8c0.6,0,1.2-0.1,1.2-1c0-0.9-0.6-1-1-1h-1.9V214z M227.8,217.1
	h-4.2v-5.7h4.2v0.7h-3.4v1.8h3.1v0.7h-3.1v1.9h3.5V217.1z M229.6,217.1h-0.8v-5.7h4v0.7h-3.2v1.8h2.8v0.7h-2.8V217.1z M238,217.1
	h-4.2v-5.7h4.2v0.7h-3.4v1.8h3.1v0.7h-3.1v1.9h3.5V217.1z M243.8,214.3c-0.1-0.6-0.4-0.9-1-0.9c-0.9,0-1.2,0.8-1.2,1.6
	c0,0.7,0.2,1.6,1.1,1.6c0.5,0,0.9-0.4,1-1h0.7c-0.1,0.7-0.5,1.6-1.7,1.6c-1.2,0-1.9-0.9-1.9-2.1c0-1.3,0.6-2.3,2-2.3
	c1.1,0,1.5,0.8,1.6,1.5H243.8z M246.8,212.8c1.3,0,1.9,1.1,1.9,2.2s-0.6,2.2-1.9,2.2s-1.9-1.1-1.9-2.2S245.5,212.8,246.8,212.8z
	 M246.8,216.6c1,0,1.2-1,1.2-1.6s-0.2-1.6-1.2-1.6s-1.2,1-1.2,1.6S245.8,216.6,246.8,216.6z M253,217.1h-0.7v-2.6
	c0-0.7-0.2-1.1-0.9-1.1c-0.4,0-1.1,0.3-1.1,1.4v2.3h-0.7v-4.2h0.7v0.6h0c0.2-0.2,0.5-0.7,1.3-0.7c0.6,0,1.5,0.3,1.5,1.5V217.1z
	 M254.9,213.5v2.7c0,0.3,0.3,0.3,0.4,0.3h0.2v0.6c-0.3,0-0.5,0.1-0.5,0.1c-0.7,0-0.8-0.4-0.8-0.9v-2.8h-0.6v-0.6h0.6v-1.2h0.7v1.2
	h0.7v0.6H254.9z M257.1,217.1h-0.7v-4.2h0.7v0.7h0c0.3-0.5,0.6-0.8,1.2-0.8c0.1,0,0.1,0,0.2,0v0.7h-0.3c-0.7,0-1.1,0.5-1.1,1.1
	V217.1z M260.6,212.8c1.3,0,1.9,1.1,1.9,2.2s-0.6,2.2-1.9,2.2s-1.9-1.1-1.9-2.2S259.3,212.8,260.6,212.8z M260.6,216.6
	c1,0,1.2-1,1.2-1.6s-0.2-1.6-1.2-1.6s-1.2,1-1.2,1.6S259.6,216.6,260.6,216.6z M264.1,217.1h-0.7v-5.7h0.7V217.1z M267.3,217.1v-5.7
	h0.7v2.1h0c0.3-0.4,0.7-0.6,1.2-0.6c1.1,0,1.7,0.9,1.7,2.1c0,1-0.4,2.3-1.8,2.3c-0.7,0-1-0.4-1.2-0.6h0v0.5H267.3z M269.1,213.5
	c-1,0-1.1,1.1-1.1,1.8c0,1.1,0.7,1.4,1.1,1.4c0.8,0,1.1-0.7,1.1-1.6C270.3,214.5,270.2,213.5,269.1,213.5z M271.8,212.2v-0.8h0.7
	v0.8H271.8z M272.5,217.1h-0.7v-4.2h0.7V217.1z M274.5,213.5v2.7c0,0.3,0.3,0.3,0.4,0.3h0.2v0.6c-0.3,0-0.5,0.1-0.5,0.1
	c-0.7,0-0.8-0.4-0.8-0.9v-2.8h-0.6v-0.6h0.6v-1.2h0.7v1.2h0.7v0.6H274.5z"/>
<path id="XMLID_151_" class="st2" d="M371.3,324.3l-0.6,1.7h-0.8l2.2-5.7h0.9l2.1,5.7h-0.8l-0.6-1.7H371.3z M373.3,323.6l-0.8-2.5h0
	l-0.9,2.5H373.3z M375.8,320.2h2.3c1.5,0,2.4,1.1,2.4,2.8c0,1.3-0.6,3-2.4,3h-2.3V320.2z M376.5,325.3h1.5c1,0,1.7-0.8,1.7-2.2
	s-0.7-2.2-1.7-2.2h-1.4V325.3z M385.5,321.9c-0.2-1-1.1-1.2-1.6-1.2c-1,0-1.9,0.8-1.9,2.3c0,1.4,0.5,2.4,1.9,2.4
	c0.5,0,1.4-0.2,1.6-1.6h0.8c-0.3,2.2-2.1,2.3-2.5,2.3c-1.3,0-2.6-0.8-2.6-3.1c0-1.8,1-3,2.7-3c1.5,0,2.2,0.9,2.4,1.9H385.5z
	 M389.5,325.9h-0.8v-4h-1.3v-0.6c0.9-0.1,1.3-0.2,1.5-1.1h0.6V325.9z"/>
<path id="XMLID_127_" class="st2" d="M487.1,324v0.5l-6-2V322L487.1,324z M486.9,303.9h-5.7v-0.7h2.1v0c-0.4-0.3-0.6-0.7-0.6-1.2
	c0-1.1,0.9-1.7,2.1-1.7c1,0,2.3,0.4,2.3,1.8c0,0.7-0.4,1-0.6,1.2v0h0.5V303.9z M486.9,318.2v0.7h-0.6v0c0.6,0.3,0.7,0.8,0.7,1.2
	c0,1.4-1.3,1.8-2.3,1.8c-1.2,0-2.1-0.6-2.1-1.7c0-0.8,0.5-1.1,0.7-1.2l-0.1,0h-2.1v-0.7H486.9z M486.9,340v0.7h-0.6v0
	c0.6,0.3,0.7,0.8,0.7,1.2c0,1.4-1.3,1.8-2.3,1.8c-1.2,0-2.1-0.6-2.1-1.7c0-0.8,0.5-1.1,0.7-1.2l-0.1,0h-2.1V340H486.9z M486.9,344.4
	v0.7h-0.6v0c0.6,0.3,0.7,0.8,0.7,1.2c0,1.4-1.3,1.8-2.3,1.8c-1.2,0-2.1-0.6-2.1-1.7c0-0.8,0.5-1.1,0.7-1.2l-0.1,0h-2.1v-0.7H486.9z
	 M485.3,352.2l1.7,0.6v0.8l-5.7-2.2v-0.9l5.7-2.1v0.8l-1.7,0.6V352.2z M483.4,311.9h2.7c0.3,0,0.3-0.3,0.3-0.4v-0.2h0.6
	c0,0.3,0.1,0.5,0.1,0.5c0,0.7-0.4,0.8-0.9,0.8h-2.8v0.6h-0.6v-0.6h-1.2v-0.7h1.2v-0.7h0.6V311.9z M484.6,350.2l-2.5,0.8v0l2.5,0.9
	V350.2z M484,292.7c-0.3,0-0.7,0.1-0.7,1c0,0.2,0.1,0.8,0.6,0.8c0.3,0,0.4-0.2,0.6-0.8l0.2-0.7c0.2-0.9,0.5-1.2,1.1-1.2
	c0.9,0,1.4,0.7,1.4,1.7c0,1.7-1,1.8-1.5,1.8v-0.7c0.3,0,0.9-0.1,0.9-1.1c0-0.5-0.2-1-0.7-1c-0.3,0-0.4,0.2-0.6,0.8l-0.2,0.8
	c-0.1,0.6-0.4,1-1,1c-0.9,0-1.3-0.8-1.3-1.6c0-1.5,1.1-1.6,1.3-1.6V292.7z M484,310.6c-1,0-1.4-0.7-1.4-1.7c0-0.3,0.1-1.6,1.2-1.6
	h2.4c0.2,0,0.2-0.1,0.2-0.2c0-0.1,0-0.2,0-0.2h0.5c0,0.1,0.1,0.2,0.1,0.4c0,0.6-0.3,0.7-0.6,0.7c0.3,0.3,0.7,0.7,0.7,1.5
	c0,0.8-0.5,1.3-1.2,1.3c-0.4,0-1.2-0.1-1.3-1.3l-0.1-1.2c0-0.2-0.1-0.4-0.5-0.4c-0.4,0-0.7,0.3-0.7,1c0,0.8,0.5,0.9,0.8,1V310.6z
	 M484,317.2c-1,0-1.4-0.7-1.4-1.7c0-0.3,0.1-1.6,1.2-1.6h2.4c0.2,0,0.2-0.1,0.2-0.2c0-0.1,0-0.2,0-0.2h0.5c0,0.1,0.1,0.2,0.1,0.4
	c0,0.6-0.3,0.7-0.6,0.7c0.3,0.3,0.7,0.7,0.7,1.5c0,0.8-0.5,1.3-1.2,1.3c-0.4,0-1.2-0.1-1.3-1.3l-0.1-1.2c0-0.2-0.1-0.4-0.5-0.4
	c-0.4,0-0.7,0.3-0.7,1c0,0.8,0.5,0.9,0.8,1V317.2z M484,325.5c-0.3,0-0.7,0.1-0.7,1c0,0.2,0.1,0.8,0.6,0.8c0.3,0,0.4-0.2,0.6-0.8
	l0.2-0.7c0.2-0.9,0.5-1.2,1.1-1.2c0.9,0,1.4,0.7,1.4,1.7c0,1.7-1,1.8-1.5,1.8v-0.7c0.3,0,0.9-0.1,0.9-1.1c0-0.5-0.2-1-0.7-1
	c-0.3,0-0.4,0.2-0.6,0.8L485,327c-0.1,0.6-0.4,1-1,1c-0.9,0-1.3-0.8-1.3-1.6c0-1.5,1.1-1.6,1.3-1.6V325.5z M484,329.5
	c-0.3,0-0.7,0.1-0.7,1c0,0.2,0.1,0.8,0.6,0.8c0.3,0,0.4-0.2,0.6-0.8l0.2-0.7c0.2-0.9,0.5-1.2,1.1-1.2c0.9,0,1.4,0.7,1.4,1.7
	c0,1.7-1,1.8-1.5,1.8v-0.7c0.3,0,0.9-0.1,0.9-1.1c0-0.5-0.2-1-0.7-1c-0.3,0-0.4,0.2-0.6,0.8L485,331c-0.1,0.6-0.4,1-1,1
	c-0.9,0-1.3-0.8-1.3-1.6c0-1.5,1.1-1.6,1.3-1.6V329.5z M485.6,332.8c0.2,0,0.8,0.2,1.1,0.7c0.1,0.2,0.3,0.5,0.3,1.1
	c0,1.2-0.9,1.9-2.1,1.9c-1.3,0-2.3-0.6-2.3-2c0-1.2,1-1.8,2.4-1.8v3.1c0.9,0,1.4-0.4,1.4-1.2c0-0.7-0.5-1.1-0.8-1.1V332.8z
	 M486.9,338.2v0.7h-4.2v-0.7h0.7v0c-0.5-0.3-0.8-0.6-0.8-1.2c0-0.1,0-0.1,0-0.2h0.7v0.3c0,0.7,0.5,1.1,1.1,1.1H486.9z M486.9,296.8
	h-0.6l0,0c0.5,0.3,0.7,0.7,0.7,1.3c0,0.6-0.3,1.4-1.3,1.4h-3v-0.7h2.8c0.7,0,0.9-0.4,0.9-0.8c0-0.9-0.8-1.2-1.4-1.2h-2.3v-0.7h4.2
	V296.8z M483.3,302.1c0,1,1.1,1.1,1.8,1.1c1.1,0,1.4-0.7,1.4-1.1c0-0.8-0.7-1.1-1.6-1.1C484.3,301,483.3,301,483.3,302.1z
	 M486.5,320c0-0.4-0.3-1.1-1.4-1.1c-0.7,0-1.8,0.1-1.8,1.1c0,1.1,1,1.1,1.6,1.1C485.8,321.2,486.5,320.8,486.5,320z M484.5,333.4
	c-0.6,0-1.2,0.3-1.2,1.2c0,0.6,0.6,1.2,1.2,1.2V333.4z M486.5,341.8c0-0.4-0.3-1.1-1.4-1.1c-0.7,0-1.8,0.1-1.8,1.1
	c0,1.1,1,1.1,1.6,1.1C485.8,342.9,486.5,342.6,486.5,341.8z M486.5,346.3c0-0.4-0.3-1.1-1.4-1.1c-0.7,0-1.8,0.1-1.8,1.1
	c0,1.1,1,1.1,1.6,1.1C485.8,347.4,486.5,347,486.5,346.3z M484.8,308c0.1,0.1,0.2,0.3,0.3,1.2c0,0.3,0.2,0.9,0.7,0.9
	c0.5,0,0.7-0.2,0.7-0.8c0-0.7-0.4-1.3-1-1.3H484.8z M484.8,314.7c0.1,0.1,0.2,0.3,0.3,1.2c0,0.3,0.2,0.9,0.7,0.9
	c0.5,0,0.7-0.2,0.7-0.8c0-0.7-0.4-1.3-1-1.3H484.8z"/>
<polygon id="XMLID_126_" class="st2" points="293.6,345.1 294.5,345.1 292.4,350.8 291.6,350.8 289.5,345.1 290.4,345.1 292,350 
	292,350 "/>
<path id="XMLID_118_" class="st2" d="M296.4,352.9h-0.8v-5.7h2.7c0.9,0,1.9,0.3,1.9,1.5c0,0.8-0.4,1.2-0.8,1.4
	c0.3,0.1,0.7,0.3,0.7,1.1l0,1c0,0.3,0,0.4,0.3,0.6v0.1h-1c-0.1-0.4-0.1-1.2-0.1-1.4c0-0.5-0.1-1-1-1h-1.9V352.9z M296.4,349.8h1.8
	c0.6,0,1.2-0.1,1.2-1c0-0.9-0.6-1-1-1h-1.9V349.8z M305.6,352.9h-4.2v-5.7h4.2v0.7h-3.4v1.8h3.1v0.7h-3.1v1.9h3.5V352.9z
	 M307.5,352.9h-0.8v-5.7h4v0.7h-3.2v1.8h2.8v0.7h-2.8V352.9z M312.4,352.9h-0.8v-5.7h0.8V352.9z M317.5,347.2h0.8v5.7h-0.9l-2.9-4.6
	h0v4.6h-0.8v-5.7h0.9l2.9,4.6h0V347.2z M319,347.2h4.7v0.7h-1.9v5.1h-0.8v-5.1H319V347.2z"/>
<polyline id="XMLID_117_" class="st2" points="335.9,276.9 335.9,273.3 336.8,273.8 341.2,276.4 342.2,276.9 341.1,277.5 336.8,280 
	335.9,280.5 335.9,279.5 336.2,279 340.6,276.4 341.1,277.5 340.6,277.5 336.2,274.9 336.8,273.8 337.1,274.4 337.1,276.9 "/>
<rect id="XMLID_116_" x="335.9" y="276.9" class="st2" width="1.2" height="2.5"/>
<polyline id="XMLID_115_" class="st2" points="336.5,276.9 336.5,274.4 340.9,276.9 336.5,279.5 "/>
<rect id="XMLID_114_" x="210.8" y="276.7" class="st2" width="0.3" height="0.6"/>
<path id="XMLID_100_" class="st2" d="M346.7,278.2l-0.6,1.7h-0.8l2.2-5.7h0.9l2.1,5.7h-0.8l-0.6-1.7H346.7z M348.7,277.5l-0.8-2.5h0
	l-0.9,2.5H348.7z M351.2,274.2h2.3c1.5,0,2.4,1.1,2.4,2.8c0,1.3-0.6,3-2.4,3h-2.3V274.2z M352,279.2h1.5c1,0,1.7-0.8,1.7-2.2
	s-0.7-2.2-1.7-2.2H352V279.2z M361,275.9c-0.2-1-1.1-1.2-1.6-1.2c-1,0-1.9,0.8-1.9,2.3c0,1.4,0.5,2.4,1.9,2.4c0.5,0,1.4-0.2,1.6-1.6
	h0.8c-0.3,2.2-2.1,2.3-2.5,2.3c-1.3,0-2.6-0.8-2.6-3.1c0-1.8,1-3,2.7-3c1.5,0,2.2,0.9,2.4,1.9H361z M365,279.9h-0.8v-4h-1.3v-0.6
	c0.9-0.1,1.3-0.2,1.5-1.1h0.6V279.9z M366.5,280.9v-0.4h4.4v0.4H366.5z M372.5,279.9h-0.8v-5.7h0.8V279.9z M377.6,274.2h0.8v5.7
	h-0.9l-2.9-4.6h0v4.6h-0.8v-5.7h0.9l2.9,4.6h0V274.2z M381.9,279.9h-0.8v-4h-1.3v-0.6c0.9-0.1,1.3-0.2,1.5-1.1h0.6V279.9z
	 M386.8,275.8c-0.1-0.5-0.4-0.9-1-0.9c-1.1,0-1.3,1.5-1.3,2.1l0,0c0.2-0.3,0.6-0.7,1.3-0.7c0.7,0,1.8,0.4,1.8,1.8
	c0,0.6-0.2,1-0.5,1.4c-0.3,0.3-0.6,0.5-1.4,0.5c-0.4,0-1-0.2-1.4-0.8c-0.3-0.5-0.4-1.2-0.4-2c0-1.2,0.4-3,2.1-3
	c0.6,0,1.6,0.4,1.6,1.5H386.8z M385.8,279.4c0.7,0,1.1-0.5,1.1-1.3c0-0.5-0.3-1.2-1.1-1.2c-0.8,0-1.2,0.6-1.2,1.2
	C384.6,278.8,384.9,279.4,385.8,279.4z"/>
<polyline id="XMLID_81_" class="st2" points="335.9,358 335.9,354.3 336.8,354.9 341.2,357.5 342.2,358 341.1,358.6 336.8,361.1 
	335.9,361.6 335.9,360.5 336.2,360 340.6,357.5 341.1,358.6 340.6,358.6 336.2,356 336.8,354.9 337.1,355.4 337.1,358 "/>
<rect id="XMLID_80_" x="335.9" y="358" class="st2" width="1.2" height="2.5"/>
<polyline id="XMLID_79_" class="st2" points="336.5,358 336.5,355.4 340.9,358 336.5,360.5 "/>
<rect id="XMLID_78_" x="212.7" y="357.7" class="st2" width="0.3" height="0.6"/>
<path id="XMLID_67_" class="st2" d="M169,355.3h-0.8v-5.7h0.8V355.3z M173.6,355.3h-0.7v-2.6c0-0.7-0.2-1.1-0.9-1.1
	c-0.4,0-1.1,0.3-1.1,1.4v2.3h-0.7v-4.2h0.7v0.6h0c0.2-0.2,0.5-0.7,1.3-0.7c0.6,0,1.5,0.3,1.5,1.5V355.3z M175.5,351.7v2.7
	c0,0.3,0.3,0.3,0.4,0.3h0.2v0.6c-0.3,0-0.5,0.1-0.5,0.1c-0.7,0-0.8-0.4-0.8-0.9v-2.8h-0.6v-0.6h0.6V350h0.7v1.2h0.7v0.6H175.5z
	 M180.4,354c0,0.2-0.2,0.8-0.7,1.1c-0.2,0.1-0.5,0.3-1.1,0.3c-1.2,0-1.9-0.9-1.9-2.1c0-1.3,0.6-2.3,2-2.3c1.2,0,1.8,1,1.8,2.4h-3.1
	c0,0.9,0.4,1.4,1.2,1.4c0.7,0,1.1-0.5,1.1-0.8H180.4z M179.8,352.9c0-0.6-0.3-1.2-1.2-1.2c-0.6,0-1.2,0.6-1.2,1.2H179.8z
	 M182.1,355.3h-0.7v-4.2h0.7v0.7h0c0.3-0.5,0.6-0.8,1.2-0.8c0.1,0,0.1,0,0.2,0v0.7h-0.3c-0.7,0-1.1,0.5-1.1,1.1V355.3z M187.6,355.3
	h-0.7v-2.6c0-0.7-0.2-1.1-0.9-1.1c-0.4,0-1.1,0.3-1.1,1.4v2.3h-0.7v-4.2h0.7v0.6h0c0.2-0.2,0.5-0.7,1.3-0.7c0.6,0,1.5,0.3,1.5,1.5
	V355.3z M188.6,352.4c0-1,0.7-1.4,1.7-1.4c0.3,0,1.6,0.1,1.6,1.2v2.4c0,0.2,0.1,0.2,0.2,0.2c0.1,0,0.2,0,0.2,0v0.5
	c-0.1,0-0.2,0.1-0.4,0.1c-0.6,0-0.7-0.3-0.7-0.6c-0.3,0.3-0.7,0.7-1.5,0.7c-0.8,0-1.3-0.5-1.3-1.2c0-0.4,0.1-1.2,1.3-1.3l1.2-0.1
	c0.2,0,0.4-0.1,0.4-0.5c0-0.4-0.3-0.7-1-0.7c-0.8,0-0.9,0.5-1,0.8H188.6z M191.2,353.2c-0.1,0.1-0.3,0.2-1.2,0.3
	c-0.3,0-0.9,0.2-0.9,0.7c0,0.5,0.2,0.7,0.8,0.7c0.7,0,1.3-0.4,1.3-1V353.2z M193.8,355.3h-0.7v-5.7h0.7V355.3z"/>
<path id="XMLID_51_" class="st2" d="M159.9,360.7h0.7v0.6h0c0.2-0.2,0.5-0.7,1.2-0.7c1.1,0,1.7,0.9,1.7,2.1c0,1-0.4,2.3-1.8,2.3
	c-0.6,0-0.9-0.3-1.1-0.6h0v2.1h-0.7V360.7z M161.7,364.4c0.8,0,1.1-0.7,1.1-1.6c0-0.5-0.1-1.6-1.1-1.6c-1,0-1.1,1.1-1.1,1.8
	C160.6,364.1,161.3,364.4,161.7,364.4z M166.1,360.6c1.3,0,1.9,1.1,1.9,2.2s-0.6,2.2-1.9,2.2s-1.9-1.1-1.9-2.2
	S164.8,360.6,166.1,360.6z M166.1,364.4c1,0,1.2-1,1.2-1.6s-0.2-1.6-1.2-1.6s-1.2,1-1.2,1.6S165.1,364.4,166.1,364.4z M170.3,364.9
	h-0.7l-1.2-4.2h0.8l0.8,3.3h0l0.8-3.3h0.8l0.8,3.3h0l0.8-3.3h0.7l-1.2,4.2H172l-0.8-3.2h0L170.3,364.9z M178,363.6
	c0,0.2-0.2,0.8-0.7,1.1c-0.2,0.1-0.5,0.3-1.1,0.3c-1.2,0-1.9-0.9-1.9-2.1c0-1.3,0.6-2.3,2-2.3c1.2,0,1.8,1,1.8,2.4H175
	c0,0.9,0.4,1.4,1.2,1.4c0.7,0,1.1-0.5,1.1-0.8H178z M177.3,362.5c0-0.6-0.3-1.2-1.2-1.2c-0.6,0-1.2,0.6-1.2,1.2H177.3z M179.7,364.9
	H179v-4.2h0.7v0.7h0c0.3-0.5,0.6-0.8,1.2-0.8c0.1,0,0.1,0,0.2,0v0.7h-0.3c-0.7,0-1.1,0.5-1.1,1.1V364.9z M183.7,364.9v-5.7h0.7v2.1
	h0c0.3-0.4,0.7-0.6,1.2-0.6c1.1,0,1.7,0.9,1.7,2.1c0,1-0.4,2.3-1.8,2.3c-0.7,0-1-0.4-1.2-0.6h0v0.5H183.7z M185.5,361.3
	c-1,0-1.1,1.1-1.1,1.8c0,1.1,0.7,1.4,1.1,1.4c0.8,0,1.1-0.7,1.1-1.6C186.7,362.3,186.6,361.3,185.5,361.3z M188.8,364.9h-0.7v-5.7
	h0.7V364.9z M191.6,360.6c1.3,0,1.9,1.1,1.9,2.2s-0.6,2.2-1.9,2.2s-1.9-1.1-1.9-2.2S190.2,360.6,191.6,360.6z M191.6,364.4
	c1,0,1.2-1,1.2-1.6s-0.2-1.6-1.2-1.6s-1.2,1-1.2,1.6S190.6,364.4,191.6,364.4z M196.9,362.2c-0.1-0.6-0.4-0.9-1-0.9
	c-0.9,0-1.2,0.8-1.2,1.6c0,0.7,0.2,1.6,1.1,1.6c0.5,0,0.9-0.4,1-1h0.7c-0.1,0.7-0.5,1.6-1.7,1.6c-1.2,0-1.9-0.9-1.9-2.1
	c0-1.3,0.6-2.3,2-2.3c1.1,0,1.5,0.8,1.6,1.5H196.9z M201.6,364.9h-0.9l-1.3-2.1l-0.6,0.5v1.6h-0.7v-5.7h0.7v3.3l1.8-1.8h0.9
	l-1.6,1.6L201.6,364.9z"/>
<path id="XMLID_46_" class="st3" d="M477.3,265.7h13.2v114h-13.2V265.7z M342.6,243.6h75.6v159.6h-75.6V243.6z M149.6,324.6H212v66
	h-62.4V324.6z M148.5,238h62.4v66h-62.4V238z"/>
<polyline id="XMLID_45_" class="st0" points="250.4,373.7 230,400.1 230,238.1 250.4,263.3 "/>
<polygon id="XMLID_44_" class="st3" points="250.4,373.7 230,400.1 230,238.1 250.4,263.3 "/>
<polyline id="XMLID_43_" class="st1" points="417.3,318.5 467.7,318.5 467.7,314.9 477.3,323.3 467.7,331.7 467.7,328.1 
	417.3,328.1 "/>
<path id="XMLID_31_" class="st2" d="M346.7,360.6l-0.6,1.7h-0.8l2.2-5.7h0.9l2.1,5.7h-0.8l-0.6-1.7H346.7z M348.7,359.9l-0.8-2.5h0
	l-0.9,2.5H348.7z M351.2,356.5h2.3c1.5,0,2.4,1.1,2.4,2.8c0,1.3-0.6,3-2.4,3h-2.3V356.5z M352,361.6h1.5c1,0,1.7-0.8,1.7-2.2
	s-0.7-2.2-1.7-2.2H352V361.6z M361,358.2c-0.2-1-1.1-1.2-1.6-1.2c-1,0-1.9,0.8-1.9,2.3c0,1.4,0.5,2.4,1.9,2.4c0.5,0,1.4-0.2,1.6-1.6
	h0.8c-0.3,2.2-2.1,2.3-2.5,2.3c-1.3,0-2.6-0.8-2.6-3.1c0-1.8,1-3,2.7-3c1.5,0,2.2,0.9,2.4,1.9H361z M365,362.2h-0.8v-4h-1.3v-0.6
	c0.9-0.1,1.3-0.2,1.5-1.1h0.6V362.2z M366.5,363.2v-0.4h4.4v0.4H366.5z M372.5,362.2h-0.8v-5.7h0.8V362.2z M377.6,356.5h0.8v5.7
	h-0.9l-2.9-4.6h0v4.6h-0.8v-5.7h0.9l2.9,4.6h0V356.5z M381.9,362.2h-0.8v-4h-1.3v-0.6c0.9-0.1,1.3-0.2,1.5-1.1h0.6V362.2z
	 M383.7,356.7h3.9v0.6c-0.6,0.6-1.9,2.4-2.3,4.9h-0.8c0.2-1.5,1.2-3.6,2.3-4.8h-3.1V356.7z"/>
<path id="XMLID_10_" class="st2" d="M424.9,308.4c-0.1-0.6-0.4-0.9-1-0.9c-0.9,0-1.2,0.8-1.2,1.6c0,0.7,0.2,1.6,1.1,1.6
	c0.5,0,0.9-0.4,1-1h0.7c-0.1,0.7-0.5,1.6-1.7,1.6c-1.2,0-1.9-0.9-1.9-2.1c0-1.3,0.6-2.3,2-2.3c1.1,0,1.5,0.8,1.6,1.5H424.9z
	 M428,306.9c1.3,0,1.9,1.1,1.9,2.2s-0.6,2.2-1.9,2.2s-1.9-1.1-1.9-2.2S426.6,306.9,428,306.9z M428,310.7c1,0,1.2-1,1.2-1.6
	s-0.2-1.6-1.2-1.6s-1.2,1-1.2,1.6S427,310.7,428,310.7z M434.1,311.2h-0.7v-2.6c0-0.7-0.2-1.1-0.9-1.1c-0.4,0-1.1,0.3-1.1,1.4v2.3
	h-0.7V307h0.7v0.6h0c0.2-0.2,0.5-0.7,1.3-0.7c0.6,0,1.5,0.3,1.5,1.5V311.2z M437.7,307h0.8l-1.6,4.2h-0.8l-1.5-4.2h0.8l1.1,3.4h0
	L437.7,307z M442.4,309.9c0,0.2-0.2,0.8-0.7,1.1c-0.2,0.1-0.5,0.3-1.1,0.3c-1.2,0-1.9-0.9-1.9-2.1c0-1.3,0.6-2.3,2-2.3
	c1.2,0,1.8,1,1.8,2.4h-3.1c0,0.9,0.4,1.4,1.2,1.4c0.7,0,1.1-0.5,1.1-0.8H442.4z M441.7,308.8c0-0.6-0.3-1.2-1.2-1.2
	c-0.6,0-1.2,0.6-1.2,1.2H441.7z M444.1,311.2h-0.7V307h0.7v0.7h0c0.3-0.5,0.6-0.8,1.2-0.8c0.1,0,0.1,0,0.2,0v0.7h-0.3
	c-0.7,0-1.1,0.5-1.1,1.1V311.2z M447.1,307.6v2.7c0,0.3,0.3,0.3,0.4,0.3h0.2v0.6c-0.3,0-0.5,0.1-0.5,0.1c-0.7,0-0.8-0.4-0.8-0.9
	v-2.8h-0.6V307h0.6v-1.2h0.7v1.2h0.7v0.6H447.1z M452,309.9c0,0.2-0.2,0.8-0.7,1.1c-0.2,0.1-0.5,0.3-1.1,0.3c-1.2,0-1.9-0.9-1.9-2.1
	c0-1.3,0.6-2.3,2-2.3c1.2,0,1.8,1,1.8,2.4H449c0,0.9,0.4,1.4,1.2,1.4c0.7,0,1.1-0.5,1.1-0.8H452z M451.3,308.8
	c0-0.6-0.3-1.2-1.2-1.2c-0.6,0-1.2,0.6-1.2,1.2H451.3z M456.4,311.2h-0.7v-0.6h0c-0.3,0.6-0.8,0.7-1.2,0.7c-1.4,0-1.8-1.3-1.8-2.3
	c0-1.2,0.6-2.1,1.7-2.1c0.8,0,1.1,0.5,1.2,0.7l0-0.1v-2.1h0.7V311.2z M454.5,310.7c0.4,0,1.1-0.3,1.1-1.4c0-0.7-0.1-1.8-1.1-1.8
	c-1.1,0-1.1,1-1.1,1.6C453.4,310,453.8,310.7,454.5,310.7z M463.1,311.2h-0.7v-0.6h0c-0.3,0.6-0.8,0.7-1.2,0.7
	c-1.4,0-1.8-1.3-1.8-2.3c0-1.2,0.6-2.1,1.7-2.1c0.8,0,1.1,0.5,1.2,0.7l0-0.1v-2.1h0.7V311.2z M461.2,310.7c0.4,0,1.1-0.3,1.1-1.4
	c0-0.7-0.1-1.8-1.1-1.8c-1.1,0-1.1,1-1.1,1.6C460.1,310,460.4,310.7,461.2,310.7z M464,308.3c0-1,0.7-1.4,1.7-1.4
	c0.3,0,1.6,0.1,1.6,1.2v2.4c0,0.2,0.1,0.2,0.2,0.2c0.1,0,0.2,0,0.2,0v0.5c-0.1,0-0.2,0.1-0.4,0.1c-0.6,0-0.7-0.3-0.7-0.6
	c-0.3,0.3-0.7,0.7-1.5,0.7c-0.8,0-1.3-0.5-1.3-1.2c0-0.4,0.1-1.2,1.3-1.3l1.2-0.1c0.2,0,0.4-0.1,0.4-0.5c0-0.4-0.3-0.7-1-0.7
	c-0.8,0-0.9,0.5-1,0.8H464z M466.6,309.1c-0.1,0.1-0.3,0.2-1.2,0.3c-0.3,0-0.9,0.2-0.9,0.7c0,0.5,0.2,0.7,0.8,0.7
	c0.7,0,1.3-0.4,1.3-1V309.1z M469.3,307.6v2.7c0,0.3,0.3,0.3,0.4,0.3h0.2v0.6c-0.3,0-0.5,0.1-0.5,0.1c-0.7,0-0.8-0.4-0.8-0.9v-2.8
	h-0.6V307h0.6v-1.2h0.7v1.2h0.7v0.6H469.3z M470.7,308.3c0-1,0.7-1.4,1.7-1.4c0.3,0,1.6,0.1,1.6,1.2v2.4c0,0.2,0.1,0.2,0.2,0.2
	c0.1,0,0.2,0,0.2,0v0.5c-0.1,0-0.2,0.1-0.4,0.1c-0.6,0-0.7-0.3-0.7-0.6c-0.3,0.3-0.7,0.7-1.5,0.7c-0.8,0-1.3-0.5-1.3-1.2
	c0-0.4,0.1-1.2,1.3-1.3l1.2-0.1c0.2,0,0.4-0.1,0.4-0.5c0-0.4-0.3-0.7-1-0.7c-0.8,0-0.9,0.5-1,0.8H470.7z M473.3,309.1
	c-0.1,0.1-0.3,0.2-1.2,0.3c-0.3,0-0.9,0.2-0.9,0.7c0,0.5,0.2,0.7,0.8,0.7c0.7,0,1.3-0.4,1.3-1V309.1z"/>
</svg>
