<?xml version="1.0" encoding="utf-8"?>
<!-- Generator: Adobe Illustrator 21.0.2, SVG Export Plug-In . SVG Version: 6.00 Build 0)  -->
<svg version="1.1" id="Vrstva_1" xmlns="http://www.w3.org/2000/svg" xmlns:xlink="http://www.w3.org/1999/xlink" x="0px" y="0px"
	 viewBox="0 0 1756 523" style="enable-background:new 0 0 1756 523;" xml:space="preserve">
<style type="text/css">
	.st0{fill:#3F4040;}
	.st1{fill:#28A8E0;}
</style>
<path class="st0" d="M623.2,187.7c-17.4,17.1-26.1,38.1-26.1,62.8h34.2c0-15,5.3-27.9,16.1-38.5c10.7-10.6,23.7-15.9,38.9-15.9
	c14.8,0,27.6,5.3,38.3,15.9c10.7,10.6,16.1,23.4,16.1,38.5v60.2h-54c-24.8,0-45.9,8.6-63.3,25.8c-17.5,17.2-26.1,38.1-26.1,62.8
	v34.1c0,24.3,8.7,45.1,26.1,62.5c17.4,17.4,38.4,26,63.1,26c23.5,0,43.8-8.3,60.8-24.9l11.6,19.1h16.2V250.5
	c0-24.7-8.7-45.6-26-62.8c-17.4-17.2-38.2-25.8-62.5-25.8C661.5,161.9,640.5,170.5,623.2,187.7 M647.3,471.9
	c-10.7-10.6-16.1-23.4-16.1-38.5v-34.1c0-15.1,5.3-27.9,16.1-38.5c10.7-10.6,23.7-15.9,38.9-15.9h54.4v88.6
	c0,14.6-5.4,27.4-16.1,38.2c-10.7,10.8-23.5,16.2-38.3,16.2C671,487.8,658.1,482.5,647.3,471.9"/>
<path class="st0" d="M831.5,186.3l-11.6-18.5h-16.2v348.4h34.1V250.5c0-15,5.4-27.9,16.1-38.5c10.7-10.6,23.7-15.9,38.9-15.9
	c14.8,0,27.6,5.3,38.3,15.9c10.7,10.6,16.1,23.4,16.1,38.5v265.7h34.1V250.5c0-24.7-8.7-45.6-26-62.8
	c-17.4-17.2-38.2-25.8-62.5-25.8C869,161.9,848.5,170,831.5,186.3"/>
<path class="st0" d="M1036.4,187.7c-17.4,17.2-26,38.1-26,62.8v182.9c0,24.3,8.6,45.1,26,62.5c17.4,17.4,38.4,26,63.1,26
	c24.3,0,45.2-8.7,62.5-26c17.4-17.3,26.1-38.2,26.1-62.5v-37h-34.1v37c0,14.6-5.4,27.4-16.1,38.2c-10.7,10.8-23.5,16.2-38.3,16.2
	c-15.2,0-28.2-5.4-38.9-16.2c-10.7-10.8-16.1-23.6-16.1-38.2V250.5c0-15,5.3-27.9,16.1-38.5c10.7-10.6,23.7-15.9,38.9-15.9
	c14.8,0,27.6,5.3,38.3,15.9c10.7,10.6,16.1,23.4,16.1,38.5v37h34.1v-37c0-24.7-8.7-45.6-26.1-62.8c-17.4-17.2-38.2-25.8-62.5-25.8
	C1074.8,161.9,1053.8,170.5,1036.4,187.7"/>
<path class="st0" d="M2,53.1v463h16.2l11.6-19.1c17,16.6,37.4,24.9,61.3,24.9c24.3,0,45.2-8.7,62.5-26.1c17.3-17.3,26-38.2,26-62.5
	V250.5c0-24.7-8.7-45.6-26.1-62.8c-17.4-17.2-38.4-25.8-62.8-25.8c-20.5,0-38.7,6.2-54.6,18.5V53.1H2z M52.3,471.6
	c-10.7-10.8-16.1-23.5-16.1-38.2V250.5c0-15,5.3-27.9,16.1-38.5c10.7-10.6,23.7-15.9,38.9-15.9c14.8,0,27.6,5.3,38.3,15.9
	c10.7,10.6,16.1,23.4,16.1,38.5v182.9c0,14.6-5.3,27.4-16.1,38.2c-10.7,10.8-23.5,16.2-38.3,16.2C75.9,487.8,63,482.4,52.3,471.6"/>
<polygon class="st0" points="404.7,167.7 404.7,201.9 544.2,201.9 405,484.9 405,516.2 582.1,516.2 582.1,482 443.2,482 
	582.1,199.6 582.1,167.7 "/>
<path class="st0" d="M347.5,166v144c0,15-5.3,27.9-16.1,38.5c-10.7,10.6-23.5,15.9-38.3,15.9h-1c-14.8,0-27.6-5.3-38.4-15.9
	c-10.7-10.6-16.1-23.4-16.1-38.5V166h-34.2v144c0,24.7,8.7,45.7,26.1,62.8c13.3,13.1,28.6,21.2,45.9,24.3v119.3h34.1V397.1
	c17.3-3.1,32.6-11.2,45.8-24.3c17.4-17.1,26.2-38.1,26.2-62.8V166H347.5z"/>
<path class="st0" d="M1243,187.7c-17.4,17.2-26.1,38.1-26.1,62.8v182.9c0,24.3,8.7,45.1,26.1,62.5c17.4,17.4,38.4,26,63.1,26
	c24.3,0,45.2-8.7,62.5-26c17.4-17.3,26.1-38.2,26.1-62.5v-37h-34.2v37c0,14.6-5.4,27.4-16.1,38.2c-10.7,10.8-23.5,16.2-38.3,16.2
	c-15.2,0-28.2-5.4-38.9-16.2c-10.7-10.8-16.1-23.6-16.1-38.2v-88.6h143.6v-94.3c0-24.7-8.7-45.6-26.1-62.8
	c-17.4-17.2-38.2-25.8-62.5-25.8C1281.4,161.9,1260.4,170.5,1243,187.7 M1251.1,250.5c0-15,5.4-27.9,16.1-38.5
	c10.7-10.6,23.7-15.9,38.9-15.9c14.8,0,27.6,5.3,38.3,15.9c10.7,10.6,16.1,23.4,16.1,38.5v59.6h-109.4V250.5z"/>
<path class="st1" d="M1478.1,38.2h240.2v240.2h-240.2V38.2z M1443.4,3.6v344.9l35.3-35.4H1753V3.6H1443.4z"/>
<path class="st1" d="M1621,242.8c0,5.2,4.2,9.4,9.4,9.4c5.2,0,9.4-4.2,9.4-9.4v-15.2H1621L1621,242.8L1621,242.8z M1621,242.8"/>
<path class="st1" d="M1621,76.5v15.2h18.9V76.5c0-5.2-4.2-9.4-9.4-9.4C1625.2,67.1,1621,71.3,1621,76.5L1621,76.5z M1621,76.5"/>
<path class="st1" d="M1590.3,76.5v15.2h18.9V76.5c0-5.2-4.2-9.4-9.4-9.4S1590.3,71.3,1590.3,76.5L1590.3,76.5z M1590.3,76.5"/>
<path class="st1" d="M1590.3,242.8c0,5.2,4.2,9.4,9.4,9.4s9.4-4.2,9.4-9.4v-15.2h-18.9V242.8z M1590.3,242.8"/>
<path class="st1" d="M1559.6,76.5v15.2h18.9V76.5c0-5.2-4.2-9.4-9.4-9.4C1563.8,67.1,1559.6,71.3,1559.6,76.5L1559.6,76.5z
	 M1559.6,76.5"/>
<path class="st1" d="M1559.6,242.8c0,5.2,4.2,9.4,9.4,9.4s9.4-4.2,9.4-9.4v-15.2h-18.9V242.8z M1559.6,242.8"/>
<path class="st1" d="M1507.1,190.3c0,5.2,4.2,9.4,9.4,9.4h15.2v-18.9h-15.2C1511.4,180.9,1507.1,185.1,1507.1,190.3L1507.1,190.3z
	 M1507.1,190.3"/>
<path class="st1" d="M1682.9,180.9h-15.2v18.9h15.2c5.2,0,9.4-4.2,9.4-9.4C1692.3,185.1,1688.1,180.9,1682.9,180.9L1682.9,180.9z
	 M1682.9,180.9"/>
<path class="st1" d="M1507.1,159.7c0,5.2,4.2,9.4,9.4,9.4h15.2v-18.9h-15.2C1511.4,150.2,1507.1,154.5,1507.1,159.7L1507.1,159.7z
	 M1507.1,159.7"/>
<path class="st1" d="M1682.9,150.2h-15.2v18.9h15.2c5.2,0,9.4-4.2,9.4-9.4C1692.3,154.5,1688.1,150.2,1682.9,150.2L1682.9,150.2z
	 M1682.9,150.2"/>
<path class="st1" d="M1507.1,129c0,5.2,4.2,9.4,9.4,9.4h15.2v-18.9h-15.2C1511.4,119.6,1507.1,123.8,1507.1,129L1507.1,129z
	 M1507.1,129"/>
<path class="st1" d="M1682.9,119.6h-15.2v18.9h15.2c5.2,0,9.4-4.2,9.4-9.4C1692.3,123.8,1688.1,119.6,1682.9,119.6L1682.9,119.6z
	 M1682.9,119.6"/>
<path class="st1" d="M1540.9,208.7c0,5.4,4.4,9.8,9.8,9.8h98c5.4,0,9.8-4.4,9.8-9.8v-98c0-5.4-4.4-9.8-9.8-9.8h-98
	c-5.4,0-9.8,4.4-9.8,9.8V208.7z M1540.9,208.7"/>
</svg>
